# xmcd
#
# Track frame offsets:
#	182
#	13395
#	30870
#	46975
#	59320
#	76690
#	93280
#	106050
#	125850
#	142525
#	157137
#	169505
#	181585
#	194107
#
# Disc length: 2766 seconds
#
# Revision: 2
# Processed by: cddbd v1.4PL0 Copyright (c) Steve Scherf et al.
# Submitted via: audiograbber 1.80.04
#
DISCID=a90acc0e
DTITLE=Dolly Parton - The Very Best Of Dolly Parton
DYEAR=1900
DGENRE=Country
TTITLE0=I Will Always Love You
TTITLE1=Save The Last Dance For Me 
TTITLE2=I Walk The Line
TTITLE3=Elusive Butterfly
TTITLE4=We Had It All
TTITLE5=She Don't Love You
TTITLE6=I Can't Help Myself
TTITLE7=Turn! Turn! Turn!
TTITLE8=The Great Pretender
TTITLE9=Harper Valley PTA
TTITLE10=D.I.V.O.R.C.E
TTITLE11=Jolene
TTITLE12=9 To 5
TTITLE13=Here You Come Again
EXTD=spelling correction to 'Jolene'
EXTT0=
EXTT1=
EXTT2=
EXTT3=
EXTT4=
EXTT5=
EXTT6=
EXTT7=
EXTT8=
EXTT9=
EXTT10=
EXTT11=
EXTT12=
EXTT13=
PLAYORDER=
